<svg width="11" height="11" viewBox="0 0 11 11" fill="none" xmlns="http://www.w3.org/2000/svg">
<path d="M5.49998 2.79168C5.35632 2.79168 5.21855 2.84875 5.11697 2.95033C5.01538 3.05191 4.95832 3.18968 4.95832 3.33334V5.50001C4.95832 5.64367 5.01538 5.78144 5.11697 5.88303C5.21855 5.98461 5.35632 6.04168 5.49998 6.04168C5.64364 6.04168 5.78142 5.98461 5.883 5.88303C5.98458 5.78144 6.04165 5.64367 6.04165 5.50001V3.33334C6.04165 3.18968 5.98458 3.05191 5.883 2.95033C5.78142 2.84875 5.64364 2.79168 5.49998 2.79168ZM5.99832 7.46084C5.98646 7.42633 5.97007 7.39354 5.94957 7.36334L5.88457 7.28209C5.80839 7.20693 5.71167 7.15602 5.60659 7.13577C5.50151 7.11553 5.39279 7.12686 5.29415 7.16834C5.22851 7.19577 5.16805 7.23425 5.1154 7.28209C5.0652 7.33271 5.02548 7.39273 4.99852 7.45873C4.97157 7.52472 4.9579 7.59539 4.95832 7.66668C4.95917 7.73746 4.97389 7.80739 5.00165 7.87251C5.02598 7.93973 5.06479 8.00078 5.11534 8.05132C5.16588 8.10187 5.22693 8.14068 5.29415 8.16501C5.35899 8.19367 5.42909 8.20847 5.49998 8.20847C5.57087 8.20847 5.64098 8.19367 5.70582 8.16501C5.77303 8.14068 5.83408 8.10187 5.88463 8.05132C5.93518 8.00078 5.97399 7.93973 5.99832 7.87251C6.02607 7.80739 6.04079 7.73746 6.04165 7.66668C6.04431 7.63061 6.04431 7.59441 6.04165 7.55834C6.03232 7.5238 6.01771 7.49091 5.99832 7.46084V7.46084ZM5.49998 0.0833435C4.42867 0.0833435 3.38141 0.401025 2.49064 0.996216C1.59988 1.59141 0.905609 2.43738 0.495635 3.42714C0.0856599 4.41691 -0.0216081 5.50602 0.187395 6.55675C0.396398 7.60748 0.912286 8.57264 1.66982 9.33017C2.42735 10.0877 3.39251 10.6036 4.44324 10.8126C5.49397 11.0216 6.58308 10.9143 7.57285 10.5044C8.56262 10.0944 9.40858 9.40012 10.0038 8.50935C10.599 7.61858 10.9166 6.57133 10.9166 5.50001C10.9166 4.78868 10.7765 4.08432 10.5043 3.42714C10.2321 2.76996 9.83313 2.17283 9.33014 1.66985C8.82716 1.16686 8.23003 0.767876 7.57285 0.495663C6.91567 0.22345 6.21131 0.0833435 5.49998 0.0833435V0.0833435ZM5.49998 9.83334C4.64293 9.83334 3.80512 9.5792 3.09251 9.10305C2.3799 8.62689 1.82448 7.95012 1.4965 7.15831C1.16852 6.36649 1.08271 5.4952 1.24991 4.65462C1.41712 3.81403 1.82983 3.04191 2.43585 2.43588C3.04188 1.82985 3.81401 1.41714 4.65459 1.24994C5.49518 1.08274 6.36646 1.16855 7.15828 1.49653C7.95009 1.82451 8.62686 2.37993 9.10302 3.09254C9.57917 3.80515 9.83332 4.64296 9.83332 5.50001C9.83332 6.64928 9.37677 7.75148 8.56411 8.56414C7.75145 9.3768 6.64925 9.83334 5.49998 9.83334V9.83334Z" fill="#EF5F5E"/>
</svg>
